HIERARCHY
ROOT Joint1
{
	OFFSET 0.000000 0.000000 0.000000
	CHANNELS 6 Xposition Yposition Zposition Xrotation Yrotation Zrotation
	JOINT Joint2
	{
		OFFSET -0.000000 0.000000 1.456275
		CHANNELS 6 Xposition Yposition Zposition Xrotation Yrotation Zrotation
		JOINT Joint3
		{
			OFFSET -0.000000 0.000002 1.471446
			CHANNELS 6 Xposition Yposition Zposition Xrotation Yrotation Zrotation
			JOINT Joint4
			{
				OFFSET 0.625745 0.000000 0.917755
				CHANNELS 6 Xposition Yposition Zposition Xrotation Yrotation Zrotation
				JOINT Joint5
				{
					OFFSET -0.629534 0.000001 0.940221
					CHANNELS 6 Xposition Yposition Zposition Xrotation Yrotation Zrotation
					JOINT Joint6
					{
						OFFSET -0.000001 0.113772 1.960660
						CHANNELS 6 Xposition Yposition Zposition Xrotation Yrotation Zrotation
						JOINT Joint7
						{
							OFFSET -0.669733 -0.113771 0.388340
							CHANNELS 6 Xposition Yposition Zposition Xrotation Yrotation Zrotation
							End Site
							{
								OFFSET 0.005509 0.005509 0.438980
							}
						}
					}
				}
			}
		}
	}
}
MOTION
Frames: 27
Frame Time: 0.041667
0.000000 0.000000 0.000000 -0.000000 1.019410 -0.076745 -0.000000 0.000000 1.456275 -0.000000 -44.969163 0.000000 -0.000000 0.000002 1.471446 0.000000 -1.133463 0.018585 0.625745 0.000000 0.917755 0.000004 135.003825 -0.000001 -0.629533 0.000001 0.940220 -0.000000 1.709737 -0.075668 -0.000001 0.113772 1.960660 -88.308998 89.963420 -0.003504 -0.669733 -0.113771 0.388340 -0.705893 3.566198 135.004754 
0.000000 0.000000 0.000000 -0.000000 1.019410 -0.294324 -0.000000 0.000000 1.456275 -0.000000 -44.926502 0.000000 -0.000000 0.000002 1.471446 -0.000000 -1.133461 0.154016 0.625744 0.000000 0.917756 0.000004 134.961697 -0.000001 -0.629533 0.000001 0.940221 0.000000 1.709737 -0.261607 -0.000000 0.113772 1.960661 -88.306300 89.922733 -0.001461 -0.669733 -0.113771 0.388339 -0.707753 3.566196 135.109502 
0.000000 0.000000 0.000000 -0.000000 1.019410 -0.649268 -0.000000 0.000000 1.456275 0.000000 -44.856888 0.000000 -0.000000 0.000002 1.471446 -0.000000 -1.133458 0.374949 0.625745 0.000000 0.917754 0.000004 134.892958 -0.000001 -0.629534 0.000001 0.940221 0.000000 1.709736 -0.564937 -0.000001 0.113772 1.960661 -88.305248 89.856350 -0.000914 -0.669733 -0.113771 0.388340 -0.710788 3.566186 135.280352 
0.000000 0.000000 0.000000 -0.000000 1.019410 -1.135287 -0.000000 -0.000000 1.456275 0.000000 -44.761587 -0.000000 -0.000000 0.000002 1.471446 0.000000 -1.133462 0.677470 0.625745 0.000000 0.917755 0.000003 134.798851 -0.000001 -0.629534 0.000001 0.940221 0.000000 1.709736 -0.980281 -0.000001 0.113772 1.960660 -88.304654 89.765461 -0.000495 -0.669733 -0.113771 0.388340 -0.714943 3.566157 135.514300 
0.000000 0.000000 0.000000 -0.000000 1.019410 -1.746092 -0.000000 -0.000000 1.456275 -0.000000 -44.641809 0.000000 -0.000000 0.000002 1.471446 0.000000 -1.133463 1.057662 0.625745 0.000000 0.917755 0.000004 134.680566 -0.000001 -0.629534 0.000001 0.940221 0.000000 1.709736 -1.502266 -0.000001 0.113772 1.960661 -88.304435 89.651233 -0.000350 -0.669733 -0.113771 0.388339 -0.720165 3.566096 135.808299 
0.000000 0.000000 0.000000 -0.000000 1.019410 -2.475392 -0.000000 -0.000000 1.456275 -0.000000 -44.498788 0.000001 -0.000000 0.000002 1.471446 -0.000000 -1.133459 1.511613 0.625745 0.000000 0.917755 0.000004 134.539345 -0.000001 -0.629534 0.000001 0.940221 0.000000 1.709736 -2.125514 -0.000000 0.113772 1.960661 -88.304278 89.514841 -0.000260 -0.669733 -0.113771 0.388339 -0.726399 3.565990 136.159357 
0.000000 0.000000 0.000000 -0.000000 1.019410 -3.316899 -0.000000 -0.000000 1.456275 -0.000000 -44.333771 0.000000 -0.000000 0.000002 1.471446 0.000000 -1.133460 2.035405 0.625745 0.000000 0.917755 0.000004 134.376418 -0.000001 -0.629534 0.000001 0.940221 0.000000 1.709736 -2.844654 -0.000001 0.113772 1.960661 -88.304189 89.357473 -0.000186 -0.669733 -0.113771 0.388340 -0.733592 3.565820 136.564414 
0.000000 0.000000 0.000000 -0.000000 1.019410 -4.264323 -0.000000 0.000000 1.456275 -0.000000 -44.147986 0.000000 -0.000000 0.000002 1.471446 0.000000 -1.133460 2.625125 0.625744 0.000000 0.917755 0.000004 134.192959 -0.000001 -0.629534 0.000001 0.940221 -0.000000 1.709737 -3.654307 -0.000001 0.113772 1.960661 -88.304108 89.180291 -0.000157 -0.669733 -0.113771 0.388340 -0.741688 3.565566 137.020439 
0.000000 0.000000 0.000000 -0.000000 1.019410 -5.311373 -0.000000 0.000000 1.456275 0.000000 -43.942664 0.000000 -0.000000 0.000002 1.471445 -0.000000 -1.133458 3.276858 0.625745 0.000000 0.917755 0.000004 133.990198 -0.000001 -0.629534 0.000001 0.940221 -0.000000 1.709736 -4.549101 -0.000000 0.113772 1.960661 -88.304067 88.984483 -0.000129 -0.669733 -0.113771 0.388340 -0.750634 3.565213 137.524425 
0.000000 0.000000 0.000000 -0.000000 1.019410 -6.455665 -0.000000 0.000000 1.456275 0.000000 -43.718272 -0.000000 -0.000000 0.000002 1.471446 0.000000 -1.133464 3.989117 0.625744 0.000000 0.917755 0.000003 133.768627 -0.000001 -0.629533 0.000001 0.940221 -0.000000 1.709736 -5.526994 -0.000001 0.113772 1.960661 -88.304046 88.770486 -0.000086 -0.669733 -0.113771 0.388341 -0.760405 3.564733 138.075225 
0.000000 0.000000 0.000000 -0.000000 1.019410 -7.710428 -0.000000 0.000000 1.456275 0.000000 -43.472214 -0.000000 -0.000000 0.000002 1.471445 0.000000 -1.133460 4.770140 0.625745 0.000000 0.917755 0.000003 133.525649 -0.000001 -0.629534 0.000001 0.940221 -0.000000 1.709736 -6.599298 -0.000001 0.113772 1.960661 -88.304012 88.535835 -0.000089 -0.669733 -0.113771 0.388340 -0.771114 3.564104 138.679177 
0.000000 0.000000 0.000000 -0.000000 1.019410 -9.092804 -0.000000 -0.000000 1.456275 -0.000000 -43.201124 0.000000 -0.000000 0.000002 1.471446 -0.000000 -1.133457 5.630592 0.625744 0.000000 0.917755 0.000004 133.257961 -0.000001 -0.629534 0.000001 0.940221 0.000001 1.709736 -7.780655 -0.000000 0.113772 1.960660 -88.303998 88.277320 -0.000076 -0.669733 -0.113771 0.388340 -0.782904 3.563279 139.344588 
0.000000 0.000000 0.000000 -0.000000 1.019410 -10.619924 -0.000000 0.000000 1.456275 0.000000 -42.901665 0.000000 -0.000000 0.000002 1.471446 0.000001 -1.133463 6.581145 0.625744 0.000000 0.917755 0.000003 132.962254 -0.000001 -0.629533 0.000001 0.940221 0.000000 1.709736 -9.085708 -0.000001 0.113772 1.960661 -88.303978 87.991729 -0.000059 -0.669733 -0.113771 0.388340 -0.795915 3.562207 140.079639 
0.000000 0.000000 0.000000 -0.000000 1.019410 -12.297347 -0.000000 -0.000000 1.456275 0.000000 -42.572723 -0.000000 -0.000000 0.000002 1.471446 -0.000001 -1.133460 7.625247 0.625745 0.000000 0.917755 0.000004 132.637452 -0.000002 -0.629534 0.000001 0.940221 0.000000 1.709736 -10.519209 -0.000000 0.113772 1.960661 -88.303978 87.678032 -0.000048 -0.669733 -0.113771 0.388340 -0.810192 3.560841 140.887063 
0.000000 0.000000 0.000000 -0.000000 1.019410 -14.084311 -0.000000 -0.000000 1.456275 0.000000 -42.222307 0.000000 -0.000000 0.000002 1.471446 0.000002 -1.133458 8.737537 0.625744 0.000000 0.917755 0.000005 132.291421 -0.000001 -0.629533 0.000001 0.940221 -0.000000 1.709736 -12.046320 -0.000001 0.113772 1.960660 -88.303937 87.343851 -0.000047 -0.669733 -0.113771 0.388341 -0.825378 3.559162 141.747216 
0.000000 0.000000 0.000000 -0.000000 1.019410 -15.928476 -0.000000 -0.000000 1.456275 0.000001 -41.860662 0.000003 -0.000000 0.000002 1.471446 0.000001 -1.133460 9.885429 0.625745 0.000000 0.917755 0.000002 131.934311 0.000000 -0.629534 0.000001 0.940221 -0.000001 1.709736 -13.622315 -0.000001 0.113772 1.960661 -88.303937 86.998968 -0.000037 -0.669734 -0.113771 0.388340 -0.841019 3.557194 142.634868 
0.000000 0.000000 0.000000 -0.000000 1.019410 -17.775882 -0.000000 0.000000 1.456275 -0.000000 -41.498385 -0.000002 -0.000000 0.000002 1.471445 -0.000001 -1.133461 11.035339 0.625745 0.000000 0.917755 0.000002 131.576587 -0.000003 -0.629534 0.000001 0.940221 0.000000 1.709736 -15.201085 -0.000000 0.113772 1.960661 -88.303944 86.653476 -0.000033 -0.669733 -0.113771 0.388340 -0.856657 3.554979 143.524090 
0.000000 0.000000 0.000000 -0.000000 1.019410 -19.566088 -0.000000 0.000000 1.456275 -0.000002 -41.147327 0.000001 -0.000000 0.000002 1.471446 -0.000000 -1.133456 12.149647 0.625744 0.000000 0.917755 0.000003 131.229927 -0.000002 -0.629533 0.000001 0.940221 0.000001 1.709736 -16.730967 -0.000000 0.113772 1.960661 -88.303930 86.318688 -0.000035 -0.669733 -0.113771 0.388340 -0.871776 3.552597 144.385773 
0.000000 0.000000 0.000000 -0.000000 1.019410 -21.237027 -0.000000 0.000000 1.456275 0.000001 -40.819663 0.000000 -0.000001 0.000002 1.471446 -0.000001 -1.133459 13.189716 0.625745 0.000000 0.917755 0.000004 130.906367 -0.000002 -0.629533 0.000001 0.940220 0.000001 1.709736 -18.158920 -0.000002 0.113772 1.960660 -88.303937 86.006206 -0.000042 -0.669733 -0.113771 0.388340 -0.885855 3.550175 145.190055 
0.000000 0.000000 0.000000 -0.000000 1.019410 -22.787075 -0.000000 -0.000000 1.456275 -0.000000 -40.515699 0.000003 -0.000000 0.000002 1.471446 -0.000001 -1.133452 14.154539 0.625744 0.000000 0.917755 0.000002 130.606222 0.000001 -0.629533 0.000001 0.940221 0.000000 1.709736 -19.483574 -0.000001 0.113772 1.960660 -88.303944 85.716333 -0.000039 -0.669733 -0.113771 0.388341 -0.898881 3.547753 145.936158 
0.000000 0.000000 0.000000 -0.000000 1.019410 -24.456397 -0.000000 0.000000 1.456275 -0.000001 -40.188348 -0.000001 -0.000000 0.000002 1.471446 -0.000001 -1.133455 15.193597 0.625745 0.000000 0.917755 0.000004 130.282976 -0.000000 -0.629534 0.000001 0.940221 0.000002 1.709737 -20.910149 -0.000001 0.113772 1.960660 -88.303930 85.404153 -0.000035 -0.669733 -0.113771 0.388340 -0.912875 3.544951 146.739648 
0.000000 0.000000 0.000000 -0.000000 1.019410 -26.545578 -0.000000 0.000000 1.456275 -0.000002 -39.778663 0.000002 -0.000000 0.000002 1.471446 -0.000002 -1.133460 16.493998 0.625745 0.000000 0.917755 0.000005 129.878424 -0.000000 -0.629533 0.000001 0.940221 0.000001 1.709736 -22.695535 -0.000001 0.113772 1.960660 -88.303923 85.013452 -0.000020 -0.669733 -0.113771 0.388340 -0.930330 3.541174 147.745229 
0.000000 0.000000 0.000000 -0.000000 1.019410 -29.188752 -0.000000 0.000000 1.456275 -0.000002 -39.260337 0.000002 -0.000000 0.000002 1.471446 -0.000000 -1.133458 18.139234 0.625745 0.000000 0.917755 0.000004 129.366597 -0.000004 -0.629534 0.000001 0.940221 -0.000000 1.709736 -24.954349 -0.000001 0.113772 1.960660 -88.303923 84.519151 -0.000023 -0.669733 -0.113771 0.388341 -0.952311 3.535952 149.017461 
0.000000 0.000000 0.000000 -0.000000 1.019410 -31.854131 -0.000000 0.000000 1.456275 0.000001 -38.737664 0.000002 -0.000000 0.000002 1.471445 -0.000002 -1.133458 19.798287 0.625745 0.000000 0.917755 -0.000000 128.850481 0.000000 -0.629534 0.000001 0.940221 -0.000001 1.709736 -27.232137 -0.000001 0.113772 1.960661 -88.303923 84.020691 -0.000025 -0.669733 -0.113771 0.388340 -0.974360 3.530193 150.300375 
0.000000 0.000000 0.000000 -0.000000 1.019410 -33.997594 -0.000000 0.000000 1.456275 -0.000000 -38.317331 -0.000001 -0.000000 0.000002 1.471446 -0.000002 -1.133456 21.132476 0.625745 0.000000 0.917755 -0.000000 128.435424 -0.000001 -0.629534 0.000001 0.940221 0.000003 1.709736 -29.063906 -0.000001 0.113772 1.960660 -88.303896 83.619841 -0.000017 -0.669733 -0.113771 0.388340 -0.991990 3.525208 151.332048 
0.000000 0.000000 0.000000 -0.000000 1.019410 -35.691584 -0.000000 0.000000 1.456275 -0.000001 -37.985141 -0.000003 -0.000000 0.000002 1.471446 0.000001 -1.133457 22.186895 0.625744 0.000000 0.917755 -0.000000 128.107397 -0.000001 -0.629534 0.000001 0.940221 0.000000 1.709736 -30.511565 -0.000001 0.113772 1.960661 -88.303903 83.303050 -0.000015 -0.669734 -0.113771 0.388339 -1.005857 3.521046 152.147395 
0.000000 0.000000 0.000000 -0.000000 1.019410 -37.162677 -0.000000 0.000000 1.456275 -0.000003 -37.696664 0.000000 -0.000001 0.000002 1.471446 -0.000003 -1.133458 23.102570 0.625745 0.000000 0.917755 0.000004 127.822537 -0.000002 -0.629534 0.000001 0.940221 -0.000000 1.709737 -31.768740 -0.000001 0.113772 1.960660 -88.303916 83.027943 0.000012 -0.669733 -0.113771 0.388340 -1.017854 3.517267 152.855454 
